<svg aria-hidden="true" style="width:0;height:0;position:absolute;overflow:hidden" xmlns="http://www.w3.org/2000/svg"><defs><symbol id="icon-search" viewBox="0 0 32 32"><path fill="none" stroke="#fff" style="stroke:var(--color1,#fff)" stroke-linejoin="round" stroke-linecap="round" stroke-width="2.667" d="M14.667 25.333c5.891 0 10.667-4.776 10.667-10.667S20.558 3.999 14.667 3.999 4 8.775 4 14.666s4.776 10.667 10.667 10.667zM28 28.001l-5.8-5.8"/></symbol><symbol id="icon-logo" viewBox="0 0 32 32"><path fill="none" stroke="#fff" style="stroke:var(--color1,#fff)" stroke-linejoin="round" stroke-linecap="round" stroke-width="2.667" d="M9.333 2.667v26.667M26.427 2.667H5.574a2.907 2.907 0 0 0-2.907 2.907v20.853a2.907 2.907 0 0 0 2.907 2.907h20.853a2.907 2.907 0 0 0 2.907-2.907V5.574a2.907 2.907 0 0 0-2.907-2.907zM22.667 2.667v26.667M2.667 16h26.667M2.667 9.333h6.667M2.667 22.667h6.667M22.667 22.667h6.667M22.667 9.333h6.667"/></symbol><symbol id="icon-auth" viewBox="0 0 32 32"><path fill="none" stroke="#fff" style="stroke:var(--color1,#fff)" stroke-linejoin="round" stroke-linecap="round" stroke-width="2.667" d="M16 16a7 7 0 1 0-7-7 7 7 0 0 0 7 7Zm0-12a5 5 0 1 1-5 5 5 5 0 0 1 5-5ZM17 18h-2A11 11 0 0 0 4 29a1 1 0 0 0 1 1h22a1 1 0 0 0 1-1 11 11 0 0 0-11-11ZM6.06 28A9 9 0 0 1 15 20h2a9 9 0 0 1 8.94 8Z"/></symbol><symbol id="icon-scroll-up" viewBox="0 0 32 32"><path style="fill:)" d="M17.346 8.581A2.01 2.01 0 0 0 15.929 8c-.532 0-1.041.209-1.417.581l-5.933 6c-.783.775-.783 2.031 0 2.806s2.051.776 2.833 0L14 14.754v7.266A1.98 1.98 0 0 0 15.98 24h.04A1.98 1.98 0 0 0 18 22.02v-6.963l.26.042 2.249 2.228c.709.702 1.844.873 2.656.293a1.973 1.973 0 0 0 .255-3.022l-6.074-6.017zM16 0C7.164 0 0 7.163 0 16s7.164 16 16 16c8.837 0 16-7.163 16-16S24.837 0 16 0zm0 28C9.383 28 4 22.617 4 16S9.383 4 16 4s12 5.383 12 12-5.383 12-12 12z"/></symbol></defs></svg>