<svg aria-hidden="true" style="width:0;height:0;position:absolute;overflow:hidden" xmlns="http://www.w3.org/2000/svg"><defs><symbol id="icon-search" viewBox="0 0 32 32"><path fill="none" stroke="#fff" style="stroke:var(--color1,#fff)" stroke-linejoin="round" stroke-linecap="round" stroke-width="2.667" d="M14.667 25.333c5.891 0 10.667-4.776 10.667-10.667S20.558 3.999 14.667 3.999 4 8.775 4 14.666s4.776 10.667 10.667 10.667zM28 28.001l-5.8-5.8"/></symbol><symbol id="icon-logo" viewBox="0 0 32 32"><path style="fill:" stroke-linejoin="round" stroke-linecap="round" stroke-width="2.667" d="M9.333 2.667v26.667M26.427 2.667H5.574a2.907 2.907 0 0 0-2.907 2.907v20.853a2.907 2.907 0 0 0 2.907 2.907h20.853a2.907 2.907 0 0 0 2.907-2.907V5.574a2.907 2.907 0 0 0-2.907-2.907zM22.667 2.667v26.667M2.667 16h26.667M2.667 9.333h6.667M2.667 22.667h6.667M22.667 22.667h6.667M22.667 9.333h6.667"/></symbol><symbol id="icon-auth" viewBox="0 0 32 32"><path style="fill:" stroke-linejoin="round" stroke-linecap="round" stroke-width="2.667" d="M16 16a7 7 0 1 0-7-7 7 7 0 0 0 7 7Zm0-12a5 5 0 1 1-5 5 5 5 0 0 1 5-5ZM17 18h-2A11 11 0 0 0 4 29a1 1 0 0 0 1 1h22a1 1 0 0 0 1-1 11 11 0 0 0-11-11ZM6.06 28A9 9 0 0 1 15 20h2a9 9 0 0 1 8.94 8Z"/></symbol><symbol id="icon-scroll-up" viewBox="0 0 32 32"><path style="fill:)" d="M17.346 8.581A2.01 2.01 0 0 0 15.929 8c-.532 0-1.041.209-1.417.581l-5.933 6c-.783.775-.783 2.031 0 2.806s2.051.776 2.833 0L14 14.754v7.266A1.98 1.98 0 0 0 15.98 24h.04A1.98 1.98 0 0 0 18 22.02v-6.963l.26.042 2.249 2.228c.709.702 1.844.873 2.656.293a1.973 1.973 0 0 0 .255-3.022l-6.074-6.017zM16 0C7.164 0 0 7.163 0 16s7.164 16 16 16c8.837 0 16-7.163 16-16S24.837 0 16 0zm0 28C9.383 28 4 22.617 4 16S9.383 4 16 4s12 5.383 12 12-5.383 12-12 12z"/></symbol><symbol id="moon" viewBox="0 0 32 32"><path d="M24.633 22.184c-8.188 0-14.82-6.637-14.82-14.82 0-2.695.773-5.188 2.031-7.363C5.02 1.969 0 8.188 0 15.645 0 24.676 7.32 32 16.352 32c7.457 0 13.68-5.023 15.648-11.844-2.18 1.254-4.672 2.028-7.367 2.028z"/></symbol><symbol id="sun" viewBox="0 0 32 32"><path d="M16.001 8a8 8 0 1 0 0 16 8 8 0 0 0 0-16zM14 2a2 2 0 1 1 3.999-.001A2 2 0 0 1 14 2zM4 6a2 2 0 1 1 3.999-.001A2 2 0 0 1 4 6zm-2 8a2 2 0 1 1 .001 3.999A2 2 0 0 1 2 14zm2 12a2 2 0 1 1 3.999-.001A2 2 0 0 1 4 26zm10 4c0-1.109.895-2 2-2 1.108 0 2 .891 2 2a2 2 0 1 1-4 0zm10-4a2 2 0 1 1 3.999-.001A2 2 0 0 1 24 26zm6-8a2 2 0 1 1 .001-4.001A2 2 0 0 1 30 18zM24 6a2 2 0 1 1 3.999-.001A2 2 0 0 1 24 6z"/></symbol><symbol id="modal-close" viewBox="0 0 32 32"><path d="m26.667 7.303-1.97-1.97-7.808 7.808-7.808-7.808-1.97 1.97 7.808 7.808-7.808 7.808 1.97 1.97 7.808-7.808 7.808 7.808 1.97-1.97-7.808-7.808 7.808-7.808z"/></symbol></defs></svg>